<?xml version="1.0" encoding="UTF-8"?>
<svg xmlns="http://www.w3.org/2000/svg" xmlns:xlink="http://www.w3.org/1999/xlink" width="45px" height="45px" viewBox="0 0 45 45" version="1.1">
<g id="surface1">
<path style=" stroke:none;fill-rule:nonzero;fill:rgb(0%,0%,0%);fill-opacity:1;" d="M 36.5625 18.28125 C 36.5625 22.316406 35.253906 26.042969 33.046875 29.066406 L 44.171875 40.203125 C 45.273438 41.300781 45.273438 43.085938 44.171875 44.183594 C 43.074219 45.28125 41.289062 45.28125 40.191406 44.183594 L 29.066406 33.046875 C 26.042969 35.261719 22.316406 36.5625 18.28125 36.5625 C 8.183594 36.5625 0 28.378906 0 18.28125 C 0 8.183594 8.183594 0 18.28125 0 C 28.378906 0 36.5625 8.183594 36.5625 18.28125 Z M 18.28125 30.9375 C 25.269531 30.9375 30.9375 25.269531 30.9375 18.28125 C 30.9375 11.292969 25.269531 5.625 18.28125 5.625 C 11.292969 5.625 5.625 11.292969 5.625 18.28125 C 5.625 25.269531 11.292969 30.9375 18.28125 30.9375 Z M 18.28125 30.9375 "/>
</g>
</svg>
