<?xml version="1.0" encoding="UTF-8"?>
<svg xmlns="http://www.w3.org/2000/svg" xmlns:xlink="http://www.w3.org/1999/xlink" width="45px" height="45px" viewBox="0 0 45 45" version="1.1">
<g id="surface1">
<path style=" stroke:none;fill-rule:nonzero;fill:rgb(0%,0%,0%);fill-opacity:1;" d="M 25.714844 7.03125 C 25.714844 5.476562 24.277344 4.21875 22.5 4.21875 C 20.722656 4.21875 19.285156 5.476562 19.285156 7.03125 L 19.285156 19.6875 L 4.820312 19.6875 C 3.042969 19.6875 1.605469 20.945312 1.605469 22.5 C 1.605469 24.054688 3.042969 25.3125 4.820312 25.3125 L 19.285156 25.3125 L 19.285156 37.96875 C 19.285156 39.523438 20.722656 40.78125 22.5 40.78125 C 24.277344 40.78125 25.714844 39.523438 25.714844 37.96875 L 25.714844 25.3125 L 40.179688 25.3125 C 41.957031 25.3125 43.394531 24.054688 43.394531 22.5 C 43.394531 20.945312 41.957031 19.6875 40.179688 19.6875 L 25.714844 19.6875 Z M 25.714844 7.03125 "/>
</g>
</svg>
